# xmcd CD database file
#
# Track frame offsets:
#	150
#	16477
#	38174
#	59391
#	85129
#	99136
#	111422
#	129227
#	145919
#	159029
#	179860
#
# Disc length: 2501 seconds
#
# Revision: 0
# Processed by: cddbd v1.5.2PL0 Copyright (c) Steve Scherf et al.
# Submitted via: CDex 1.50
#
DISCID=8a09c30b
DTITLE=GABIE - Sans Fanfare
DYEAR=2007
DGENRE=Country
TTITLE0=Le Calendrier
TTITLE1=Sans Fanfare
TTITLE2=A Deauville
TTITLE3=Gasoline
TTITLE4=Le Lien
TTITLE5=L'ampoule
TTITLE6=J'étais Pas Pour
TTITLE7=Les Jours A Venir
TTITLE8=Les Deux Sèvres
TTITLE9=Erie Canal
TTITLE10=Exit Sans Fanfare
EXTD=YEAR: 2007
EXTT0=
EXTT1=
EXTT2=
EXTT3=
EXTT4=
EXTT5=
EXTT6=
EXTT7=
EXTT8=
EXTT9=
EXTT10=
PLAYORDER=
